<svg width="32" height="32" viewBox="0 0 32 32" fill="none" xmlns="http://www.w3.org/2000/svg">
<g id="Group">
<path id="Vector" d="M0.195801 31.8469L2.38847 23.8399C1.03594 21.4964 0.324518 18.8381 0.325512 16.1146C0.328991 7.59468 7.26235 0.663086 15.7821 0.663086C19.9164 0.664825 23.7971 2.27404 26.7154 5.19478C29.6334 8.11551 31.2399 11.9979 31.2384 16.127C31.2347 24.6467 24.3003 31.5793 15.7821 31.5793C15.7816 31.5793 15.7823 31.5793 15.7821 31.5793H15.7754C13.1886 31.5783 10.647 30.9295 8.3895 29.6983L0.195801 31.8469ZM8.76894 26.901L9.23834 27.1791C11.2104 28.3495 13.4714 28.9684 15.7771 28.9697H15.7821C22.8625 28.9697 28.6255 23.2077 28.6285 16.126C28.6297 12.6942 27.2948 9.46704 24.8693 7.03956C22.4436 4.61207 19.2184 3.27445 15.7868 3.27296C8.70061 3.27296 2.93789 9.03418 2.93515 16.1156C2.93416 18.5423 3.61303 20.9055 4.89921 22.9505L5.20486 23.4366L3.90675 28.1758L8.76894 26.901Z" fill="#B0B0B0"/>
<g id="Vector_2">
<path fill-rule="evenodd" clip-rule="evenodd" d="M11.9192 9.65491C11.63 9.01182 11.3253 8.9989 11.05 8.98771C10.8249 8.97802 10.5672 8.97852 10.31 8.97852C10.0526 8.97852 9.6341 9.07543 9.28025 9.46183C8.92615 9.84824 7.92822 10.7826 7.92822 12.6828C7.92822 14.5832 9.31231 16.4193 9.50538 16.6773C9.69846 16.9349 12.1771 20.959 16.1025 22.5071C19.3649 23.7938 20.0286 23.5378 20.7368 23.4735C21.445 23.4091 23.0217 22.5392 23.3435 21.6374C23.6655 20.7356 23.6655 19.9628 23.5689 19.801C23.4722 19.6403 23.2148 19.5436 22.8286 19.3505C22.4425 19.1574 20.5438 18.2229 20.1897 18.0941C19.8356 17.9652 19.5781 17.9011 19.3207 18.2877C19.063 18.6739 18.3235 19.5436 18.0981 19.801C17.8727 20.0592 17.6474 20.0915 17.2612 19.8982C16.8751 19.7046 15.6311 19.2971 14.1556 17.9813C13.0076 16.9578 12.2323 15.6935 12.0069 15.3068C11.7818 14.9207 12.0032 14.7298 12.1766 14.5189C12.489 14.1389 13.013 13.4558 13.1418 13.1984C13.2705 12.9405 13.2061 12.7151 13.1097 12.5217C13.013 12.3287 12.2624 10.4188 11.9192 9.65491Z" fill="#B0B0B0"/>
<path d="M11.6912 9.75736C11.5588 9.4631 11.4393 9.35004 11.354 9.30066C11.2671 9.25029 11.1811 9.24324 11.0398 9.23751L11.0392 9.23748C10.8301 9.22848 10.5908 9.2285 10.3436 9.22852C10.3324 9.22852 10.3212 9.22852 10.31 9.22852C10.11 9.22852 9.76317 9.30466 9.46462 9.63067L9.46456 9.63074C9.44165 9.65574 9.4163 9.68278 9.38891 9.712C8.99441 10.1328 8.17822 11.0034 8.17822 12.6828C8.17822 13.5767 8.50526 14.4699 8.8673 15.1828C9.22287 15.8829 9.60155 16.3886 9.70172 16.5224L9.70545 16.5273C9.70547 16.5274 9.7055 16.5274 9.70552 16.5274C9.72224 16.5498 9.75263 16.5946 9.79629 16.6591C10.309 17.4164 12.6526 20.8778 16.1942 22.2745C17.8174 22.9147 18.7774 23.1642 19.4107 23.2491C19.9123 23.3164 20.2073 23.2819 20.4963 23.2481C20.5683 23.2396 20.6399 23.2313 20.7142 23.2245C21.0098 23.1976 21.5407 22.9885 22.0493 22.6595C22.561 22.3285 22.9759 21.9236 23.108 21.5534L23.108 21.5533C23.2617 21.1229 23.3377 20.7253 23.3641 20.4202C23.3773 20.2674 23.3777 20.1415 23.3705 20.0489C23.365 19.9785 23.3561 19.9429 23.3531 19.9309C23.3515 19.9248 23.3515 19.9247 23.3542 19.9293L23.5689 19.801M11.6912 9.75736L19.3207 18.2877C19.063 18.6739 18.3235 19.5436 18.0981 19.801M11.6912 9.75736C11.8605 10.1342 12.132 10.7979 12.3753 11.3965C12.4109 11.484 12.446 11.5706 12.4802 11.6548C12.6752 12.1353 12.8401 12.5416 12.8862 12.6337L13.1097 12.5217M11.6912 9.75736L13.1097 12.5217M23.5689 19.801L23.3546 19.9298C23.343 19.9106 23.3069 19.8728 23.1871 19.8071C23.1155 19.7678 23.0362 19.7296 22.94 19.6832C22.8744 19.6516 22.801 19.6162 22.7168 19.5741C22.5248 19.4781 21.9547 19.1967 21.3884 18.9233C20.8141 18.646 20.2661 18.3879 20.1042 18.3291L20.1041 18.3291C19.9196 18.2619 19.8209 18.2375 19.7475 18.2459C19.7016 18.2512 19.6307 18.2732 19.5288 18.4263L19.5286 18.4265C19.2602 18.8288 18.509 19.7112 18.2862 19.9657M23.5689 19.801C23.6655 19.9628 23.6655 20.7356 23.3435 21.6374L22.8286 19.3505C22.9038 19.3881 22.9742 19.4221 23.0394 19.4536C23.3089 19.5837 23.491 19.6716 23.5689 19.801ZM18.2862 19.9657L18.0981 19.801M18.2862 19.9657C18.2863 19.9656 18.2864 19.9655 18.2865 19.9654L18.0981 19.801M18.2862 19.9657C18.1497 20.122 17.9853 20.2409 17.7702 20.2671C17.5652 20.2921 17.3589 20.2267 17.1493 20.1217L17.1492 20.1217C17.0917 20.0929 17.0108 20.0578 16.9092 20.0139C16.3719 19.7813 15.2574 19.2988 13.9892 18.1679M18.0981 19.801C17.8727 20.0592 17.6474 20.0915 17.2612 19.8982C17.1979 19.8665 17.1116 19.829 17.0049 19.7827C16.461 19.5466 15.3892 19.0814 14.1556 17.9813M13.9892 18.1679C13.9892 18.1679 13.9892 18.1679 13.9892 18.1679L14.1556 17.9813M13.9892 18.1679L14.1556 17.9813M13.9892 18.1679C12.8116 17.118 12.0205 15.8265 11.7909 15.4327L12.0062 15.3072L11.7909 15.4327C11.6462 15.1845 11.6282 14.9596 11.7102 14.7544C11.7668 14.6126 11.8743 14.4877 11.946 14.4042L12.1766 14.5189M14.1556 17.9813C13.0076 16.9578 12.2323 15.6935 12.0069 15.3068C11.8034 14.9578 11.9648 14.7683 12.1258 14.5793C12.1429 14.5592 12.16 14.5391 12.1766 14.5189M12.1766 14.5189C12.489 14.1389 13.013 13.4558 13.1418 13.1984M12.1766 14.5189L12.7116 11.5603C12.9084 12.0449 13.0685 12.4394 13.1097 12.5217M12.1766 14.5189L11.9835 14.3601L11.9835 14.3601L12.1766 14.5189ZM13.1418 13.1984C13.2705 12.9405 13.2061 12.7151 13.1097 12.5217M13.1418 13.1984L12.9182 13.0866C12.9181 13.0866 12.9181 13.0867 12.9181 13.0868L13.1418 13.1984Z" stroke="black" stroke-opacity="0.06" stroke-width="0.5"/>
</g>
</g>
</svg>
