<svg width="32" height="32" viewBox="0 0 32 32" fill="none" xmlns="http://www.w3.org/2000/svg">
<path id="Vector" d="M31.2368 7.77177V13.1203C30.1558 13.03 28.7568 12.8172 27.2033 12.324C25.1772 11.6808 23.6684 10.8007 22.6824 10.1188V20.9319L22.6582 20.898C22.6749 21.1124 22.6824 21.33 22.6824 21.5508C22.6824 26.9219 17.6405 31.292 11.4396 31.292C5.23863 31.292 0.196777 26.9203 0.196777 21.5508C0.196777 16.1814 5.23863 11.8081 11.4396 11.8081C12.0461 11.8081 12.6414 11.85 13.2237 11.9306V17.2034C12.6637 17.0293 12.0647 16.9358 11.4396 16.9358C8.50374 16.9358 6.11304 19.0056 6.11304 21.5508C6.11304 24.0961 8.50374 26.1659 11.4396 26.1659C14.3754 26.1659 16.7661 24.0945 16.7661 21.5508C16.7661 21.4557 16.7642 21.3606 16.7568 21.2655V0.251953H22.9279C22.9503 0.704915 22.9726 1.1611 22.993 1.61406C23.034 2.50548 23.4005 3.36143 24.0386 4.06264C24.7884 4.88635 25.8935 5.84386 27.4489 6.60793C28.9038 7.32203 30.2693 7.62831 31.2368 7.77338V7.77177Z" fill="#D1D1D1"/>
</svg>
