<svg width="33" height="32" viewBox="0 0 33 32" fill="none" xmlns="http://www.w3.org/2000/svg">
<path id="Vector" fill-rule="evenodd" clip-rule="evenodd" d="M10.0038 0.676725C11.7401 0.601645 12.2938 0.584961 16.7169 0.584961C21.1401 0.584961 21.6937 0.603036 23.4286 0.676725C25.1635 0.750414 26.3478 1.01041 27.384 1.3872C28.469 1.77233 29.4535 2.37436 30.2676 3.15297C31.0966 3.91628 31.7361 4.83948 32.1446 5.86001C32.5473 6.83327 32.8226 7.94556 32.9026 9.57229C32.9825 11.206 33.0003 11.726 33.0003 15.879C33.0003 20.0334 32.981 20.5534 32.9026 22.1843C32.8241 23.811 32.5473 24.9233 32.1446 25.8966C31.7361 26.9172 31.0955 27.842 30.2676 28.6064C29.4535 29.385 28.469 29.9856 27.384 30.3694C26.3478 30.7476 25.1635 31.0062 23.4316 31.0812C21.6937 31.1563 21.1401 31.173 16.7169 31.173C12.2938 31.173 11.7401 31.1549 10.0038 31.0812C8.2718 31.0076 7.08756 30.7476 6.05134 30.3694C4.96468 29.9856 3.98013 29.384 3.16623 28.6064C2.33783 27.8426 1.69676 26.9183 1.28773 25.898C0.886566 24.9247 0.61123 23.8124 0.531294 22.1857C0.451357 20.552 0.433594 20.032 0.433594 15.879C0.433594 11.7246 0.452838 11.2046 0.531294 9.57507C0.60975 7.94556 0.886566 6.83327 1.28773 5.86001C1.69736 4.83959 2.33892 3.91532 3.16771 3.15158C3.98046 2.37367 4.96402 1.77156 6.04986 1.3872C7.08608 1.01041 8.27032 0.751805 10.0023 0.676725H10.0038ZM23.2969 3.42965C21.5797 3.35596 21.0646 3.34067 16.7169 3.34067C12.3693 3.34067 11.8541 3.35596 10.137 3.42965C8.54861 3.49778 7.68708 3.74665 7.11272 3.9566C6.35333 4.23467 5.81005 4.56419 5.24014 5.09948C4.69989 5.59313 4.28413 6.19409 4.02333 6.85829C3.7998 7.39775 3.53483 8.20695 3.46229 9.69881C3.38384 11.3116 3.36755 11.7955 3.36755 15.879C3.36755 19.9625 3.38384 20.4463 3.46229 22.0592C3.53483 23.551 3.7998 24.3602 4.02333 24.8997C4.28386 25.5629 4.69983 26.1649 5.24014 26.6585C5.76565 27.166 6.40662 27.5567 7.11272 27.8014C7.68708 28.0113 8.54861 28.2602 10.137 28.3283C11.8541 28.402 12.3678 28.4173 16.7169 28.4173C21.0661 28.4173 21.5797 28.402 23.2969 28.3283C24.8852 28.2602 25.7468 28.0113 26.3211 27.8014C27.0805 27.5233 27.6238 27.1938 28.1937 26.6585C28.734 26.1649 29.15 25.5629 29.4105 24.8997C29.6341 24.3602 29.899 23.551 29.9716 22.0592C30.05 20.4463 30.0663 19.9625 30.0663 15.879C30.0663 11.7955 30.05 11.3116 29.9716 9.69881C29.899 8.20695 29.6341 7.39775 29.4105 6.85829C29.1145 6.14503 28.7636 5.63477 28.1937 5.09948C27.6681 4.59209 27.0283 4.2016 26.3211 3.9566C25.7468 3.74665 24.8852 3.49778 23.2969 3.42965ZM14.6371 20.5937C15.7986 21.0479 17.092 21.1091 18.2963 20.7671C19.5006 20.4251 20.5411 19.701 21.2402 18.7185C21.9392 17.7359 22.2533 16.5559 22.129 15.38C22.0046 14.2041 21.4495 13.1052 20.5583 12.271C19.9902 11.7377 19.3033 11.3294 18.5471 11.0755C17.7908 10.8215 16.984 10.7282 16.1848 10.8022C15.3855 10.8763 14.6136 11.1158 13.9248 11.5037C13.2359 11.8915 12.6472 12.418 12.201 13.0452C11.7547 13.6724 11.4621 14.3847 11.3442 15.1309C11.2262 15.8771 11.2859 16.6385 11.5189 17.3604C11.7519 18.0824 12.1524 18.7468 12.6916 19.3059C13.2308 19.8649 13.8952 20.3048 14.6371 20.5937ZM10.7987 10.3203C11.5759 9.59033 12.4985 9.01128 13.514 8.61622C14.5294 8.22116 15.6178 8.01782 16.7169 8.01782C17.816 8.01782 18.9044 8.22116 19.9199 8.61622C20.9353 9.01128 21.858 9.59033 22.6352 10.3203C23.4124 11.0503 24.0289 11.9169 24.4495 12.8706C24.8701 13.8244 25.0866 14.8466 25.0866 15.879C25.0866 16.9113 24.8701 17.9336 24.4495 18.8873C24.0289 19.8411 23.4124 20.7077 22.6352 21.4377C21.0656 22.9119 18.9367 23.7402 16.7169 23.7402C14.4972 23.7402 12.3683 22.9119 10.7987 21.4377C9.22906 19.9634 8.34726 17.9639 8.34726 15.879C8.34726 13.7941 9.22906 11.7946 10.7987 10.3203ZM26.9429 9.18855C27.1355 9.0179 27.2896 8.8127 27.3963 8.58509C27.5029 8.35748 27.5599 8.11208 27.5637 7.86343C27.5676 7.61478 27.5183 7.36793 27.4188 7.13749C27.3192 6.90706 27.1715 6.69772 26.9842 6.52188C26.797 6.34604 26.5742 6.20726 26.3288 6.11378C26.0835 6.02029 25.8207 5.97399 25.5559 5.97761C25.2912 5.98124 25.0299 6.03471 24.7876 6.13488C24.5452 6.23504 24.3268 6.37986 24.1451 6.56075C23.7918 6.91256 23.5983 7.37985 23.6058 7.86343C23.6133 8.34701 23.8212 8.80881 24.1853 9.15079C24.5494 9.49277 25.0411 9.688 25.5559 9.69505C26.0708 9.7021 26.5683 9.52041 26.9429 9.18855Z" fill="#D1D1D1"/>
</svg>
